<svg preserveAspectRatio="none" width="100%" height="100%" overflow="visible" style="display: block;" viewBox="0 0 48 48" fill="none" xmlns="http://www.w3.org/2000/svg">
<g id="eos-icons:ai-operator" clip-path="url(#clip0_0_4)">
<path id="Vector" d="M16.712 10H14.02L10 26H12.056L12.984 22.25H17.616L18.52 26H20.644L16.712 10ZM13.254 20.644L15.288 11.9H15.378L17.346 20.646L13.254 20.644ZM22.476 26V10H24.476V26H22.476ZM22.85 28H8V8H28V17.56C30.3669 16.0306 33.2304 15.4679 36 15.988V12H32V8C31.9968 6.94011 31.5744 5.92453 30.8249 5.17507C30.0755 4.42561 29.0599 4.00317 28 4H24V0H20V4H16V0H12V4H8C6.94011 4.00317 5.92453 4.42561 5.17507 5.17507C4.42561 5.92453 4.00317 6.94011 4 8V12H0V16H4V20H0V24H4V28C4.00317 29.0599 4.42561 30.0755 5.17507 30.8249C5.92453 31.5744 6.94011 31.9968 8 32H12V36H16V32H20V36H24V32.016C23.3682 30.7613 22.9781 29.3989 22.85 28ZM27 27C27 25.6155 27.4105 24.2622 28.1797 23.111C28.9489 21.9599 30.0421 21.0627 31.3212 20.5328C32.6003 20.003 34.0078 19.8644 35.3656 20.1345C36.7235 20.4046 37.9708 21.0713 38.9497 22.0503C39.9287 23.0292 40.5954 24.2765 40.8655 25.6344C41.1356 26.9922 40.997 28.3997 40.4672 29.6788C39.9373 30.9579 39.0401 32.0511 37.889 32.8203C36.7378 33.5895 35.3845 34 34 34C32.1435 34 30.363 33.2625 29.0503 31.9497C27.7375 30.637 27 28.8565 27 27ZM34 38C29.328 38 20 40.346 20 45V48H48V45C48 40.344 38.672 38 34 38Z" fill="url(#paint0_linear_0_4)"/>
</g>
<defs>
<linearGradient id="paint0_linear_0_4" x1="24" y1="0" x2="24" y2="48" gradientUnits="userSpaceOnUse">
<stop stop-color="#42389E"/>
<stop offset="1" stop-color="#0F1026"/>
</linearGradient>
<clipPath id="clip0_0_4">
<rect width="48" height="48" fill="white"/>
</clipPath>
</defs>
</svg>
