<svg preserveAspectRatio="none" width="100%" height="100%" overflow="visible" style="display: block;" viewBox="0 0 20.9984 22.814" fill="none" xmlns="http://www.w3.org/2000/svg">
<g id="Group">
<g id="Vector">
</g>
<path id="Vector_2" d="M8.49828 1C9.74928 1 10.9383 1.27 12.0073 1.756C11.4914 2.21345 11.1489 2.83462 11.0373 3.515C9.75144 2.96939 8.32404 2.8525 6.96657 3.18165C5.6091 3.5108 4.39377 4.26849 3.50064 5.34245C2.60751 6.41641 2.08409 7.74951 2.00794 9.14424C1.93179 10.539 2.30696 11.9211 3.07786 13.0859C3.84876 14.2508 4.97438 15.1363 6.28794 15.6112C7.60151 16.0862 9.03315 16.1254 10.3707 15.7231C11.7083 15.3207 12.8807 14.4981 13.7142 13.3772C14.5477 12.2564 14.998 10.8968 14.9983 9.5L14.9933 9.231C15.5293 9.711 16.2323 9.996 16.9843 10C16.8848 11.7355 16.2532 13.3982 15.1753 14.762L18.8273 18.414C19.0094 18.6026 19.1102 18.8552 19.108 19.1174C19.1057 19.3796 19.0005 19.6304 18.8151 19.8158C18.6297 20.0012 18.3789 20.1064 18.1167 20.1087C17.8545 20.111 17.6019 20.0102 17.4133 19.828L13.7613 16.176C12.6968 17.0149 11.4471 17.5871 10.1164 17.8449C8.78579 18.1026 7.41281 18.0384 6.11203 17.6577C4.81125 17.2769 3.62039 16.5906 2.63879 15.656C1.65718 14.7214 0.913309 13.5656 0.469219 12.2851C0.0251287 11.0045 -0.1063 9.63633 0.0858966 8.29466C0.278093 6.95299 0.788343 5.67674 1.57408 4.57236C2.35981 3.46799 3.39825 2.56753 4.60276 1.94609C5.80726 1.32466 7.14291 1.00027 8.49828 1ZM8.49828 4C9.42528 4 10.2993 4.23 11.0663 4.635C11.1758 5.14041 11.4141 5.60893 11.758 5.9951C12.1019 6.38127 12.5399 6.67197 13.0293 6.839L13.3773 6.958C13.9321 8.0226 14.1234 9.2395 13.922 10.423C13.7205 11.6065 13.1373 12.6915 12.2615 13.5126C11.3856 14.3336 10.2652 14.8456 9.07119 14.9703C7.87718 15.0949 6.67515 14.8255 5.64857 14.2031C4.62199 13.5808 3.82725 12.6396 3.38562 11.5233C2.944 10.4069 2.87975 9.17675 3.20269 8.02049C3.52563 6.86423 4.21802 5.84539 5.17418 5.11945C6.13034 4.39352 7.29777 4.00037 8.49828 4ZM16.9983 0C17.1854 -4.16657e-07 17.3687 0.052478 17.5274 0.151471C17.6862 0.250465 17.814 0.392002 17.8963 0.56L17.9443 0.677L18.0743 1.055C18.2115 1.45718 18.4326 1.82563 18.7229 2.13594C19.0132 2.44625 19.3661 2.69135 19.7583 2.855L19.9433 2.925L20.3213 3.054C20.5085 3.11786 20.6725 3.2358 20.7927 3.3929C20.9128 3.54999 20.9837 3.7392 20.9963 3.93658C21.009 4.13396 20.9628 4.33065 20.8636 4.50178C20.7645 4.67291 20.6168 4.8108 20.4393 4.898L20.3213 4.946L19.9433 5.076C19.5411 5.2132 19.1726 5.43428 18.8623 5.72459C18.552 6.01491 18.3069 6.36783 18.1433 6.76L18.0733 6.945L17.9443 7.323C17.8803 7.51014 17.7623 7.6741 17.6051 7.79416C17.448 7.91423 17.2587 7.98499 17.0614 7.99752C16.864 8.01004 16.6673 7.96376 16.4963 7.86452C16.3252 7.76528 16.1874 7.61755 16.1003 7.44L16.0523 7.323L15.9223 6.945C15.7851 6.54282 15.564 6.17437 15.2737 5.86406C14.9834 5.55375 14.6304 5.30865 14.2383 5.145L14.0533 5.075L13.6753 4.946C13.4881 4.88214 13.324 4.7642 13.2039 4.6071C13.0837 4.45001 13.0128 4.2608 13.0002 4.06342C12.9876 3.86604 13.0338 3.66935 13.1329 3.49822C13.2321 3.32709 13.3798 3.1892 13.5573 3.102L13.6753 3.054L14.0533 2.924C14.4555 2.7868 14.8239 2.56572 15.1342 2.27541C15.4445 1.98509 15.6896 1.63217 15.8533 1.24L15.9233 1.055L16.0523 0.677C16.1197 0.479587 16.2471 0.308185 16.4167 0.18679C16.5863 0.0653942 16.7897 8.32272e-05 16.9983 0Z" fill="url(#paint0_linear_0_4)"/>
</g>
<defs>
<linearGradient id="paint0_linear_0_4" x1="10.4992" y1="0" x2="10.4992" y2="20.1087" gradientUnits="userSpaceOnUse">
<stop stop-color="#42389E"/>
<stop offset="1" stop-color="#0F1026"/>
</linearGradient>
</defs>
</svg>
