<svg preserveAspectRatio="none" width="100%" height="100%" overflow="visible" style="display: block;" viewBox="0 0 24 24" fill="none" xmlns="http://www.w3.org/2000/svg">
<g id="ic:round-smart-toy">
<path id="Vector" d="M20 9V7C20 5.9 19.1 5 18 5H15C15 3.34 13.66 2 12 2C10.34 2 9 3.34 9 5H6C4.9 5 4 5.9 4 7V9C2.34 9 1 10.34 1 12C1 13.66 2.34 15 4 15V19C4 20.1 4.9 21 6 21H18C19.1 21 20 20.1 20 19V15C21.66 15 23 13.66 23 12C23 10.34 21.66 9 20 9ZM7.5 11.5C7.5 10.67 8.17 10 9 10C9.83 10 10.5 10.67 10.5 11.5C10.5 12.33 9.83 13 9 13C8.17 13 7.5 12.33 7.5 11.5ZM15 17H9C8.45 17 8 16.55 8 16C8 15.45 8.45 15 9 15H15C15.55 15 16 15.45 16 16C16 16.55 15.55 17 15 17ZM15 13C14.17 13 13.5 12.33 13.5 11.5C13.5 10.67 14.17 10 15 10C15.83 10 16.5 10.67 16.5 11.5C16.5 12.33 15.83 13 15 13Z" fill="url(#paint0_linear_0_7)"/>
</g>
<defs>
<linearGradient id="paint0_linear_0_7" x1="12" y1="2" x2="12" y2="21" gradientUnits="userSpaceOnUse">
<stop stop-color="#42389E"/>
<stop offset="1" stop-color="#0F1026"/>
</linearGradient>
</defs>
</svg>
