<svg preserveAspectRatio="none" width="100%" height="100%" overflow="visible" style="display: block;" viewBox="0 0 24 24" fill="none" xmlns="http://www.w3.org/2000/svg">
<g id="ph:line-segments-fill">
<path id="Vector" d="M22.1072 7.10531C21.8637 7.34976 21.5742 7.54361 21.2555 7.67571C20.9368 7.80781 20.595 7.87554 20.25 7.875C20.0714 7.87468 19.8934 7.85647 19.7184 7.82062L16.8525 13.1428C17.1968 13.487 17.4386 13.9202 17.5508 14.3938C17.6631 14.8675 17.6414 15.3631 17.4882 15.8252C17.335 16.2873 17.0564 16.6977 16.6834 17.0105C16.3103 17.3233 15.8577 17.5263 15.376 17.5966C14.8943 17.667 14.4025 17.602 13.9556 17.409C13.5087 17.2159 13.1243 16.9024 12.8453 16.5034C12.5663 16.1045 12.4038 15.6358 12.3759 15.1498C12.348 14.6637 12.4558 14.1795 12.6872 13.7512L10.2441 11.3081C9.86185 11.5147 9.43447 11.6236 9 11.625C8.82144 11.6247 8.64335 11.6065 8.46844 11.5706L5.6025 16.8919C5.96959 17.259 6.21957 17.7267 6.32083 18.2359C6.4221 18.7451 6.3701 19.2729 6.17141 19.7525C5.97272 20.2322 5.63627 20.6421 5.20459 20.9306C4.77292 21.219 4.26541 21.3729 3.74625 21.3729C3.22709 21.3729 2.71958 21.219 2.28791 20.9306C1.85623 20.6421 1.51978 20.2322 1.32109 19.7525C1.1224 19.2729 1.0704 18.7451 1.17167 18.2359C1.27293 17.7267 1.52291 17.259 1.89 16.8919C2.19773 16.5844 2.57705 16.3583 2.99384 16.2337C3.41064 16.1092 3.85185 16.0902 4.27781 16.1784L7.14375 10.8563C6.65227 10.3633 6.37628 9.69562 6.37628 8.99953C6.37628 8.30344 6.65227 7.63575 7.14375 7.14281C7.58958 6.69671 8.18113 6.42604 8.81016 6.38031C9.4392 6.33459 10.0637 6.51687 10.5693 6.89381C11.075 7.27075 11.428 7.81714 11.5639 8.43304C11.6997 9.04893 11.6093 9.69314 11.3091 10.2478L13.7522 12.6909C14.297 12.3979 14.9276 12.306 15.5334 12.4313L18.3994 7.10906C18.1556 6.86531 17.9622 6.57592 17.8303 6.25742C17.6983 5.93892 17.6304 5.59755 17.6304 5.25281C17.6304 4.90807 17.6983 4.5667 17.8303 4.24821C17.9622 3.92971 18.1556 3.64032 18.3994 3.39656C18.8917 2.90425 19.5594 2.62768 20.2556 2.62768C20.9519 2.62768 21.6196 2.90425 22.1119 3.39656C22.6042 3.88887 22.8808 4.55658 22.8808 5.25281C22.8808 5.94904 22.6042 6.61675 22.1119 7.10906L22.1072 7.10531Z" fill="url(#paint0_linear_0_9)"/>
</g>
<defs>
<linearGradient id="paint0_linear_0_9" x1="12.001" y1="2.62768" x2="12.001" y2="21.3729" gradientUnits="userSpaceOnUse">
<stop stop-color="#42389E"/>
<stop offset="1" stop-color="#0F1026"/>
</linearGradient>
</defs>
</svg>
