<svg preserveAspectRatio="none" width="100%" height="100%" overflow="visible" style="display: block;" viewBox="0 0 48 48" fill="none" xmlns="http://www.w3.org/2000/svg">
<g id="eos-icons:code-deploy" clip-path="url(#clip0_0_6)">
<path id="Vector" d="M43.9 18H43.36L35.04 30.04L33.4 28.9L40.94 18H36.26C36.26 17.337 35.9966 16.7011 35.5278 16.2322C35.0589 15.7634 34.423 15.5 33.76 15.5C33.097 15.5 32.4611 15.7634 31.9922 16.2322C31.5234 16.7011 31.26 17.337 31.26 18H30.4L27.9 26L26 25.4L28.3 18H26.5C26.5 17.337 26.2366 16.7011 25.7678 16.2322C25.2989 15.7634 24.663 15.5 24 15.5C23.337 15.5 22.7011 15.7634 22.2322 16.2322C21.7634 16.7011 21.5 17.337 21.5 18H19.7L22 25.4L20.1 26L17.6 18H16.76C16.76 17.337 16.4966 16.7011 16.0278 16.2322C15.5589 15.7634 14.923 15.5 14.26 15.5C13.597 15.5 12.9611 15.7634 12.4922 16.2322C12.0234 16.7011 11.76 17.337 11.76 18H7.02L14.56 28.9L12.92 30.04L4.6 18H4.1C4.59523 13.0663 6.90554 8.49244 10.5827 5.16594C14.2598 1.83945 19.0415 -0.00250156 24 -0.00250156C28.9585 -0.00250156 33.7402 1.83945 37.4173 5.16594C41.0945 8.49244 43.4048 13.0663 43.9 18Z" fill="url(#paint0_linear_0_6)"/>
<path id="Vector_2" d="M22 30.81L19.172 28L11.936 35.19L9.108 38L19.172 48L22 45.19L14.764 38L22 30.81ZM26.042 45.19L28.87 48L36.106 40.81L38.934 38L28.87 28L26.042 30.81L33.278 38L26.042 45.19Z" fill="url(#paint1_linear_0_6)"/>
</g>
<defs>
<linearGradient id="paint0_linear_0_6" x1="24" y1="-0.00250156" x2="24" y2="30.04" gradientUnits="userSpaceOnUse">
<stop stop-color="#42389E"/>
<stop offset="1" stop-color="#0F1026"/>
</linearGradient>
<linearGradient id="paint1_linear_0_6" x1="24.021" y1="28" x2="24.021" y2="48" gradientUnits="userSpaceOnUse">
<stop stop-color="#42389E"/>
<stop offset="1" stop-color="#0F1026"/>
</linearGradient>
<clipPath id="clip0_0_6">
<rect width="48" height="48" fill="white"/>
</clipPath>
</defs>
</svg>
