<svg preserveAspectRatio="none" width="100%" height="100%" overflow="visible" style="display: block;" viewBox="0 0 10.1111 10.1111" fill="none" xmlns="http://www.w3.org/2000/svg">
<g id="dashboard-browsing">
<path id="Vector" opacity="0.4" d="M1.15684 4.10765H8.95426C9.15075 4.10765 9.24904 4.10765 9.31068 4.1691C9.37236 4.23057 9.37265 4.32827 9.37328 4.52363C9.37383 4.68587 9.37383 4.85506 9.37383 5.0315V5.07965C9.37383 6.00259 9.37383 6.72751 9.29774 7.29348C9.21976 7.87348 9.05672 8.33362 8.69516 8.69517C8.33361 9.05673 7.87343 9.21977 7.29347 9.29776C6.7275 9.37388 6.00258 9.37384 5.07964 9.37384H5.03145C4.10851 9.37384 3.3836 9.37388 2.81763 9.29776C2.23765 9.21977 1.77748 9.05673 1.41593 8.69517C1.05437 8.33362 0.891316 7.87348 0.813338 7.29348C0.737248 6.72751 0.737252 6.00259 0.737256 5.07965V5.03146C0.737256 4.8551 0.737256 4.68587 0.737787 4.52363C0.738423 4.32827 0.738743 4.23057 0.8004 4.1691C0.862053 4.10765 0.960316 4.10765 1.15684 4.10765Z" fill="var(--fill-0, #525866)"/>
<path id="Vector_2" fill-rule="evenodd" clip-rule="evenodd" d="M5.03118 0.737238H5.07934C6.00223 0.73723 6.72719 0.737226 7.29316 0.81332C7.87316 0.891298 8.33335 1.05435 8.6949 1.41591C9.05646 1.77747 9.2195 2.23763 9.29748 2.81761C9.30688 2.88769 9.31513 2.96022 9.32238 3.03526C9.3418 3.23683 9.35153 3.33761 9.28885 3.40664C9.22616 3.47566 9.12121 3.47566 8.91136 3.47566H1.19918C0.989316 3.47566 0.884384 3.47566 0.821691 3.40664C0.759002 3.33761 0.768717 3.23683 0.788152 3.03526C0.795385 2.96022 0.803638 2.88769 0.813063 2.81761C0.891041 2.23763 1.05409 1.77747 1.41565 1.41591C1.77721 1.05435 2.23737 0.891298 2.81735 0.81332C3.38332 0.737226 4.10824 0.73723 5.03118 0.737238ZM2.94494 1.68516C2.71226 1.68516 2.52364 1.87377 2.52364 2.10645C2.52364 2.33912 2.71226 2.52774 2.94494 2.52774H2.94872C3.1814 2.52774 3.37002 2.33912 3.37002 2.10645C3.37002 1.87377 3.1814 1.68516 2.94872 1.68516H2.94494ZM4.20882 2.10645C4.20882 1.87377 4.39743 1.68516 4.63011 1.68516H4.6339C4.86658 1.68516 5.0552 1.87377 5.0552 2.10645C5.0552 2.33912 4.86658 2.52774 4.6339 2.52774H4.63011C4.39743 2.52774 4.20882 2.33912 4.20882 2.10645Z" fill="var(--fill-0, #525866)"/>
<path id="Vector_3" fill-rule="evenodd" clip-rule="evenodd" d="M3.26503 7.79399C3.26503 6.80513 4.06667 6.00348 5.05554 6.00348C6.04441 6.00348 6.84605 6.80513 6.84605 7.79399C6.84605 7.96849 6.98752 8.10996 7.16202 8.10996C7.33653 8.10996 7.478 7.96849 7.478 7.79399C7.478 6.45612 6.39341 5.37154 5.05554 5.37154C3.71766 5.37154 2.63309 6.45612 2.63309 7.79399C2.63309 7.96849 2.77456 8.10996 2.94906 8.10996C3.12357 8.10996 3.26503 7.96849 3.26503 7.79399ZM5.57686 7.29825C5.70025 7.17485 5.70025 6.97478 5.57686 6.85143C5.45346 6.72803 5.25338 6.72803 5.12999 6.85143L4.53419 7.44722C4.41079 7.57062 4.41079 7.77065 4.53419 7.89405C4.65759 8.01745 4.85766 8.01745 4.98102 7.89405L5.57686 7.29825Z" fill="var(--fill-0, #525866)"/>
</g>
</svg>
